<?xml version="1.0" encoding="utf-8"?>
<!-- Generator: Adobe Illustrator 21.1.0, SVG Export Plug-In . SVG Version: 6.00 Build 0)  -->
<svg version="1.1" id="Layer_1" xmlns="http://www.w3.org/2000/svg" xmlns:xlink="http://www.w3.org/1999/xlink" x="0px" y="0px"
	 viewBox="0 0 22 18" style="enable-background:new 0 0 22 18;" xml:space="preserve">
<style type="text/css">
	.st0{fill:#27BDBE;}
</style>
<path class="st0" d="M20,0H2C0.9,0,0,0.9,0,2v14c0,1.1,0.9,2,2,2h18c1.1,0,2-0.9,2-2V2C22,0.9,21.1,0,20,0z M20,4h-9V2h9V4z M5,4V2
	h2v2H5z M8,2h2v2H8V2z M4,2v2H2V2H4z M2,16V6h18v10H2z"/>
</svg>
